<?xml version="1.0" encoding="UTF-8" standalone="no"?>
<!DOCTYPE svg PUBLIC "-//W3C//DTD SVG 1.1//EN" "http://www.w3.org/Graphics/SVG/1.1/DTD/svg11.dtd">
<svg width="100%" height="100%" viewBox="0 0 512 512" version="1.1" xmlns="http://www.w3.org/2000/svg" xmlns:xlink="http://www.w3.org/1999/xlink" xml:space="preserve" xmlns:serif="http://www.serif.com/" style="fill-rule:evenodd;clip-rule:evenodd;stroke-linejoin:round;stroke-miterlimit:2;">
    <g id="N" transform="matrix(9.71939,0,0,9.71939,-9.22266,-152.214)">
        <path d="M45.233,23.916C43.982,20.711 41.509,18.134 38.359,16.753C35.208,15.371 31.638,15.298 28.433,16.549C22.433,18.891 15.204,21.713 9.204,24.055C5.999,25.306 3.422,27.779 2.041,30.929C0.659,34.08 0.586,37.651 1.837,40.855C4.179,46.855 7.001,54.085 9.343,60.084C10.594,63.289 13.067,65.866 16.218,67.247C19.368,68.629 22.939,68.702 26.143,67.451C32.143,65.109 39.373,62.287 45.373,59.945C48.577,58.694 51.154,56.221 52.535,53.071C53.917,49.92 53.99,46.349 52.739,43.145C50.397,37.145 47.575,29.915 45.233,23.916Z" style="fill:rgb(73,61,247);"/>
        <path d="M44.104,25.054C42.932,22.051 40.614,19.636 37.662,18.342C34.71,17.047 31.364,16.978 28.361,18.151C22.739,20.345 15.964,22.99 10.342,25.184C7.339,26.357 4.925,28.674 3.63,31.626C2.335,34.579 2.267,37.924 3.439,40.927C5.634,46.55 8.278,53.324 10.473,58.946C11.645,61.949 13.962,64.364 16.914,65.658C19.867,66.953 23.212,67.022 26.216,65.849C31.838,63.655 38.612,61.01 44.234,58.816C47.238,57.643 49.652,55.326 50.946,52.374C52.241,49.421 52.31,46.076 51.137,43.073C48.943,37.45 46.298,30.676 44.104,25.054Z" style="fill:url(#_Linear1);"/>
        <path d="M38.986,39.483L38.98,39.466C38.98,39.466 36.21,32.561 35.56,30.939C35.524,30.851 35.529,30.751 35.574,30.667C35.618,30.583 35.698,30.523 35.791,30.503C35.847,30.491 35.905,30.489 35.962,30.484C36.051,30.477 36.139,30.474 36.228,30.473L36.277,30.473C36.349,30.474 36.422,30.476 36.494,30.48C36.665,30.491 36.835,30.513 37.003,30.547C37.193,30.586 37.379,30.64 37.559,30.71C37.754,30.785 37.941,30.88 38.117,30.994C38.25,31.08 38.377,31.178 38.495,31.285C38.706,31.477 38.889,31.701 39.039,31.944C39.113,32.063 39.179,32.187 39.238,32.315C39.268,32.377 39.295,32.441 39.321,32.505L40.714,35.979L40.862,36.348L42.863,41.336L43.31,42.453C43.418,42.72 43.414,43.019 43.301,43.284C43.188,43.549 42.974,43.758 42.707,43.865C42.346,44.009 41.961,44.164 41.684,44.275C41.428,44.378 41.154,44.431 40.878,44.431L27.288,44.442L16.502,44.489C16.102,44.49 15.851,44.503 15.59,44.517L15.597,44.534C15.597,44.534 18.366,51.439 19.016,53.061C19.052,53.149 19.047,53.249 19.002,53.333C18.958,53.417 18.879,53.477 18.786,53.497L18.785,53.497C18.729,53.509 18.671,53.511 18.614,53.516C18.526,53.523 18.437,53.526 18.349,53.527L18.299,53.527C18.227,53.526 18.155,53.524 18.083,53.52C17.912,53.509 17.741,53.487 17.573,53.453C17.384,53.414 17.197,53.36 17.017,53.29C16.822,53.215 16.635,53.12 16.46,53.006C16.326,52.92 16.2,52.822 16.082,52.715C15.87,52.523 15.688,52.299 15.537,52.056C15.463,51.937 15.397,51.813 15.338,51.685C15.309,51.623 15.282,51.559 15.256,51.495L13.862,48.021C13.862,48.021 12.085,43.588 11.266,41.547C11.159,41.28 11.162,40.981 11.275,40.716C11.389,40.451 11.602,40.242 11.869,40.135C12.23,39.991 12.615,39.836 12.892,39.725C13.148,39.622 13.422,39.569 13.698,39.569L27.289,39.558L38.074,39.511C38.475,39.51 38.725,39.497 38.986,39.483Z" style="fill:white;"/>
        <g>
            <path d="M38.986,39.483C39.873,39.349 40.281,38.835 39.881,37.766C39.876,37.751 39.871,37.736 39.865,37.721L39.566,36.974L39.569,36.97C39.021,35.6 38.472,34.23 37.915,32.863C37.851,32.709 37.777,32.56 37.69,32.419C37.572,32.229 37.43,32.053 37.266,31.901C37.173,31.815 36.862,31.529 36.525,31.389C36.194,31.25 35.642,31.144 35.642,31.144" style="fill:rgb(122,135,210);"/>
            <path d="M18.935,52.856C18.619,52.069 15.59,44.517 15.59,44.517C14.704,44.651 14.296,45.166 14.696,46.234C14.701,46.249 14.706,46.264 14.711,46.279L15.011,47.026L15.008,47.03C15.556,48.401 16.105,49.77 16.662,51.137C16.726,51.291 16.8,51.44 16.887,51.582C17.005,51.772 17.147,51.947 17.311,52.099C17.404,52.185 17.715,52.471 18.052,52.611C18.383,52.75 18.935,52.856 18.935,52.856Z" style="fill:rgb(122,135,210);"/>
        </g>
    </g>
    <defs>
        <linearGradient id="_Linear1" x1="0" y1="0" x2="1" y2="0" gradientUnits="userSpaceOnUse" gradientTransform="matrix(-17.2792,-40.1161,40.1161,-17.2792,36.7007,61.7564)"><stop offset="0" style="stop-color:rgb(5,0,83);stop-opacity:1"/><stop offset="1" style="stop-color:rgb(73,61,247);stop-opacity:1"/></linearGradient>
    </defs>
</svg>
